<svg id="Layer_1" data-name="Layer 1" xmlns="http://www.w3.org/2000/svg" viewBox="0 0 153.7 53.5"><defs><style>.cls-1{fill:#0070ba;}.cls-2{fill:#fff;}</style></defs><g id="Layer_2" data-name="Layer 2"><g id="Layer_1-2" data-name="Layer 1-2"><path class="cls-1" d="M153.7,33A20.49,20.49,0,0,1,133.21,53.5H20.49A20.48,20.48,0,0,1,0,33H0V20.49A20.48,20.48,0,0,1,20.49,0H133.21A20.48,20.48,0,0,1,153.7,20.49h0V33Z"/><rect class="cls-1" width="20.16" height="20.16"/><rect class="cls-1" x="132.55" y="32.35" width="21.15" height="21.15"/><path class="cls-2" d="M1.49,32.51H3a18,18,0,0,0,5.3,12.7h0A17.92,17.92,0,0,0,21,50.43h0v1.49A19.45,19.45,0,0,1,1.49,32.51Z"/><path class="cls-2" d="M150.71,21a17.85,17.85,0,0,0-5.31-12.7h0a18.26,18.26,0,0,0-12.69-5.22h0V1.49a19.51,19.51,0,0,1,19.5,19.41h-1.5Z"/><polygon class="cls-2" points="1.49 32.6 1.49 1.49 133.21 1.49 133.21 2.99 2.99 2.99 2.99 32.6 1.49 32.6"/><path class="cls-2" d="M21,52v-1.5H150.71V21h1.5V52Z"/><path class="cls-2" d="M11.2,21.23h3.32l1.24,6.14,1.74-6.14h3.32l1.74,6.23,1.25-6.23h3.31L24.63,32.35h-3.4l-2-7-2.07,7h-3.4Z"/><path class="cls-2" d="M28.12,21.23h9.37v2.41H31.6v1.74h5.48v2.24H31.6v2.24h6.06v2.49H28.12Z"/><path class="cls-2" d="M39.48,21.23H46a3.7,3.7,0,0,1,2.49.75,2.66,2.66,0,0,1,.92,2,2.3,2.3,0,0,1-.67,1.66,3.15,3.15,0,0,1-1.24.75,3.26,3.26,0,0,1,1.82,1,2.58,2.58,0,0,1,.58,1.74,3.08,3.08,0,0,1-1.57,2.66A2.44,2.44,0,0,1,47,32.1c-.75.08-1.33.17-1.58.17H39.4ZM43,25.63h1.49a2.6,2.6,0,0,0,1.16-.25,1.06,1.06,0,0,0,.33-.83.88.88,0,0,0-.33-.74,1.3,1.3,0,0,0-1.08-.25H43ZM43,30h1.82A1.69,1.69,0,0,0,46,29.69a.84.84,0,0,0,.34-.82.8.8,0,0,0-.34-.75,1.8,1.8,0,0,0-1.32-.33H43V30Z"/><path class="cls-2" d="M51.68,21.23h3.48v3.9H59v-3.9h3.57V32.35H59V27.87H55.16v4.48H51.68Z"/><path class="cls-2" d="M71.75,30.52h-4l-.58,1.91H63.62l4.23-11.11h3.9L76,32.43H72.33ZM71,28.12l-1.24-4-1.25,4Z"/><path class="cls-2" d="M77,21.23h3.49v8.38h5.47v2.74H77Z"/><path class="cls-2" d="M87.51,21.23H91v8.38h5.48v2.74h-9Z"/><path class="cls-2" d="M98,21.23h9.37v2.41h-5.89v1.74h5.48v2.24h-5.48v2.24h6.06v2.49H98Z"/><path class="cls-2" d="M109.32,21.23h3.32l4.23,6.14V21.23h3.32V32.35h-3.32l-4.23-6.14v6.14h-3.32Z"/><path class="cls-2" d="M123.51,31.1h1.41v1.25h-1.41Z"/><path class="cls-2" d="M130.72,30a2,2,0,0,1,.67-1.75,2.9,2.9,0,0,1,1.82-.66,2.54,2.54,0,0,1,1.83.66A2.71,2.71,0,0,1,135.7,30a3.34,3.34,0,0,1-.25,1.32,2,2,0,0,1-.83.83,3.39,3.39,0,0,1-1.33.33,3.84,3.84,0,0,1-1.32-.24,1.79,1.79,0,0,1-.83-.75A3.4,3.4,0,0,1,130.72,30Zm1.5,0a2,2,0,0,0,.24,1,1.05,1.05,0,0,0,.75.33A.91.91,0,0,0,134,31a1.26,1.26,0,0,0,.25-1.08,2.27,2.27,0,0,0-.25-1,1,1,0,0,0-1.41,0h0a1.8,1.8,0,0,0-.33,1.08Z"/><path class="cls-2" d="M136.45,27.7h1.9l.75,2.82.75-2.82h1.9v4.65h-1.24V28.78l-.91,3.57h-1.08l-.91-3.57v3.57h-1.25V27.7Z"/><circle class="cls-2" cx="99.12" cy="18.99" r="0.58"/><circle class="cls-2" cx="102.44" cy="14.43" r="0.83"/><circle class="cls-2" cx="107" cy="11.45" r="1"/><circle class="cls-2" cx="112.64" cy="10.37" r="1.24"/><circle class="cls-2" cx="118.28" cy="11.03" r="1.49"/><circle class="cls-2" cx="122.93" cy="14.1" r="1.99"/><circle class="cls-2" cx="126.41" cy="18.41" r="2.07"/><circle class="cls-2" cx="127.9" cy="23.89" r="2.32"/><path class="cls-2" d="M129,30.44l1.33.42a1.91,1.91,0,0,1-.42.91,2.18,2.18,0,0,1-.66.58,2.34,2.34,0,0,1-1.08.16,3.41,3.41,0,0,1-1.24-.24,1.84,1.84,0,0,1-.83-.75,2.07,2.07,0,0,1-.33-1.41,1.92,1.92,0,0,1,.66-1.74,2.83,2.83,0,0,1,1.74-.67,2.7,2.7,0,0,1,1.41.34,2,2,0,0,1,.75,1.07l-1.33.25a.59.59,0,0,0-.17-.33,1.22,1.22,0,0,0-.33-.25.63.63,0,0,0-.41-.08.9.9,0,0,0-.75.41,2.38,2.38,0,0,0,0,2,1,1,0,0,0,1.33,0A1.64,1.64,0,0,0,129,30.44Z"/><circle class="cls-2" cx="126.41" cy="35.17" r="2.07"/><circle class="cls-2" cx="122.93" cy="39.48" r="1.99"/><circle class="cls-2" cx="118.28" cy="42.55" r="1.49"/><circle class="cls-2" cx="112.64" cy="43.21" r="1.24"/><circle class="cls-2" cx="107" cy="42.14" r="1"/><circle class="cls-2" cx="102.44" cy="39.15" r="0.83"/><circle class="cls-2" cx="99.12" cy="34.59" r="0.58"/></g></g></svg>