<?xml version="1.0" encoding="utf-8"?>
<!-- Generator: Adobe Illustrator 23.1.0, SVG Export Plug-In . SVG Version: 6.00 Build 0)  -->
<svg version="1.1" id="Layer_1" xmlns="http://www.w3.org/2000/svg" xmlns:xlink="http://www.w3.org/1999/xlink" x="0px" y="0px"
	 viewBox="0 0 2364 330" style="enable-background:new 0 0 2364 330;" xml:space="preserve">
<style type="text/css">
	.st0{fill:#E41760;}
</style>
<g>
	<path class="st0" d="M1450.13,99.68h-45.11c-2.21,0-4,1.79-4,4v124.87c0,29.7-17.62,49.33-47.07,49.33s-46.56-19.63-46.56-49.33
		V103.68c0-2.21-1.79-4-4-4h-45.37c-2.21,0-4,1.79-4,4v124.87c0,56.13,32.97,97.91,99.92,97.91c62.67,0,100.18-36.24,100.18-97.91
		V103.68C1454.12,101.47,1452.33,99.68,1450.13,99.68z"/>
	<path class="st0" d="M1607.92,93.64c-32.72,0-57.89,14.35-69.72,36.75v-26.96c0-2.21-1.79-4-4-4h-44.11c-2.21,0-4,1.79-4,4v213.5
		c0,2.21,1.79,4,4,4h45.11c2.21,0,4-1.79,4-4V201.37c0-34.73,22.4-59.15,53.86-59.15c29.45,0,48.58,21.14,48.58,58.39v116.57
		c0,2.21,1.79,4,4,4h45.37c2.21,0,4-1.79,4-4V186.26C1694.76,108.74,1634.85,93.64,1607.92,93.64z"/>
	<path class="st0" d="M1848.81,93.64c-32.72,0-57.89,14.35-69.72,36.75v-26.96c0-2.21-1.79-4-4-4h-44.11c-2.21,0-4,1.79-4,4v213.5
		c0,2.21,1.79,4,4,4h45.11c2.21,0,4-1.79,4-4V201.37c0-34.73,22.4-59.15,53.86-59.15c29.45,0,48.58,21.14,48.58,58.39v116.57
		c0,2.21,1.79,4,4,4h45.37c2.21,0,4-1.79,4-4V186.26C1935.64,108.74,1875.74,93.64,1848.81,93.64z"/>
	<path class="st0" d="M112.4,17.62H6.4c-2.21,0-4,1.79-4,4v295.55c0,2.21,1.79,4,4,4h48.39c2.21,0,4-1.79,4-4V69.98h52.6
		c29.95,0,55.37,24.67,54.62,54.62c0,21.28-18.17,48.68-44.35,51.45c-40.78,4.53-48.58,38.41-48.58,53.01l38.3,0
		c57.89,0,105.46-45.81,106.47-103.7C218.87,65.7,171.3,17.62,112.4,17.62z"/>
	<path class="st0" d="M471.88,99.18h-45.62c-2.2,0-4,1.8-4,4v213.5c0,2.21,1.79,4,4,4h45.62c2.21,0,4-1.79,4-4v-213.5
		C475.88,100.97,474.09,99.18,471.88,99.18z"/>
	<path class="st0" d="M452.92,3.85c-20.51-1.3-37.41,15.61-36.12,36.12c1.07,16.91,14.79,30.63,31.7,31.7
		c20.51,1.29,37.41-15.61,36.12-36.12C483.55,18.64,469.83,4.92,452.92,3.85z"/>
	<path class="st0" d="M1167.43,216.09c32.36-17.58,54.59-51.36,55.28-90.74c1.01-59.65-46.56-107.73-105.46-107.73h-106
		c-2.21,0-4,1.79-4,4v295.56c0,2.21,1.79,4,4,4h48.39c2.21,0,4-1.79,4-4V69.98h52.6c29.95,0,55.37,24.67,54.62,54.62
		c0,21.28-18.17,48.68-44.34,51.45c-40.77,4.53-48.58,38.41-48.58,53.01l27.26,0c4.27,0.2,8.24,2.22,10.39,6.04l49.19,81.95
		c1.44,2.41,4.05,3.88,6.85,3.88h56.41c3.17,0,5.08-3.51,3.35-6.17L1167.43,216.09z"/>
	<path class="st0" d="M864.34,94.64c-54.37,0-115.03,34.23-115.03,115.78s63.18,115.78,117.04,115.78
		c43.07,0,81.67-21.41,101.47-54.9c1.13-1.91,0.47-4.37-1.44-5.49l-36.39-21.15c-1.91-1.11-4.4-0.46-5.47,1.47
		c-11.39,20.42-36.25,31.24-58.67,31.24c-33.98,0-64.44-27.69-64.44-66.95c0-50.09,31.97-71.23,62.92-71.23
		c33.22,0,52.86,20.39,57.39,51.09h-61.96c-22.4,0-40.52,18.12-40.52,40.52l149.88,0.24c2.05,0,3.76-1.55,3.98-3.58
		C984.02,128.49,916.55,94.64,864.34,94.64z"/>
	<path class="st0" d="M2080.9,94.64c-54.37,0-115.03,34.23-115.03,115.78s63.18,115.78,117.04,115.78
		c43.07,0,81.67-21.41,101.47-54.9c1.13-1.91,0.47-4.37-1.44-5.49l-36.39-21.15c-1.91-1.11-4.39-0.46-5.47,1.47
		c-11.39,20.42-36.25,31.24-58.67,31.24c-33.98,0-64.43-27.69-64.43-66.95c0-50.09,31.97-71.23,62.92-71.23
		c33.22,0,52.86,20.39,57.39,51.09h-61.96c-22.4,0-40.52,18.12-40.52,40.52l149.88,0.24c2.05,0,3.76-1.55,3.98-3.58
		C2200.58,128.49,2133.1,94.64,2080.9,94.64z"/>
	<path class="st0" d="M385.8,97.22c-43.23-11.91-71.59,8.1-84.85,32.66v-26.46c0-2.21-1.79-4-4-4h-43.1c-2.21,0-4,1.79-4,4v213.5
		c0,2.21,1.79,4,4,4h44.86c2.21,0,4-1.79,4-4V212.69c0-46.06,23.66-77.43,77.26-65.37c2.33,0.53,4.58-1.15,4.81-3.54
		c1.46-15.67,3.25-34.79,3.96-42.33C388.92,99.52,387.67,97.74,385.8,97.22z"/>
	<path class="st0" d="M2358.76,97.22c-43.23-11.91-71.59,8.1-84.85,32.66v-26.46c0-2.21-1.79-4-4-4h-43.1c-2.21,0-4,1.79-4,4v213.5
		c0,2.21,1.79,4,4,4h44.86c2.21,0,4-1.79,4-4V212.69c0-46.06,23.66-77.43,77.26-65.37c2.33,0.53,4.58-1.15,4.81-3.54
		c1.46-15.67,3.25-34.79,3.96-42.33C2361.87,99.52,2360.63,97.74,2358.76,97.22z"/>
	<path class="st0" d="M627.39,147.3c21.91,0,42.29,12.54,52.95,31.2c1.12,1.96,3.6,2.66,5.54,1.51l36.53-21.66
		c2.89-1.71,3.8-5.46,2.04-8.32c-20.36-33.08-56.75-55.12-98.37-55.12c-65.44,0-118.3,54.87-115.28,121.07
		c2.77,60.16,52.35,108.48,112.51,109.99c41.49,0.95,78.24-19.78,99.33-51.93c1.9-2.9,0.94-6.81-2.08-8.52l-35.59-20.02
		c-2.7-1.52-6.08-0.72-7.86,1.81c-11.15,15.82-29.26,26.11-49.72,26.11c-39.86,0-68.18-33.03-63.99-70.28
		C566.17,176.95,590.89,147.3,627.39,147.3z"/>
</g>
</svg>
