<svg id="svg" version="1.1" xmlns="http://www.w3.org/2000/svg" xmlns:xlink="http://www.w3.org/1999/xlink" width="400" height="140.41061592388584" viewBox="0, 0, 400,140.41061592388584"><g id="svgg"><path id="path0" d="M253.000 70.168 L 253.000 135.502 318.375 135.460 L 383.750 135.417 385.298 134.876 C 389.095 133.550,391.328 131.238,392.545 127.373 L 393.056 125.750 393.195 107.833 C 393.505 67.875,393.596 18.341,393.363 16.667 C 392.592 11.118,388.344 7.063,381.759 5.590 C 378.318 4.820,379.746 4.836,314.958 4.835 L 253.000 4.833 253.000 70.168 M30.583 30.484 C 24.215 32.194,20.006 36.937,18.553 44.038 C 18.073 46.386,18.016 93.072,18.491 95.815 C 19.708 102.856,23.669 107.690,30.167 110.065 L 31.583 110.583 38.417 110.634 C 47.491 110.702,49.214 110.364,52.996 107.776 C 56.816 105.161,60.124 98.903,60.367 93.830 L 60.417 92.785 59.750 92.573 C 59.383 92.456,58.183 92.086,57.083 91.751 C 55.983 91.416,54.783 91.041,54.417 90.918 C 53.454 90.594,48.829 89.200,48.309 89.077 L 47.868 88.973 47.798 91.695 C 47.657 97.212,47.139 97.545,38.804 97.468 C 32.476 97.410,32.756 97.467,31.793 96.045 C 30.786 94.558,30.823 95.633,30.872 69.818 L 30.917 46.250 31.308 45.454 C 32.434 43.169,32.717 43.083,39.167 43.083 L 44.583 43.083 45.399 43.500 C 47.212 44.425,48.000 46.316,48.000 49.738 C 48.000 52.156,47.767 51.944,49.750 51.327 C 50.889 50.973,53.759 50.105,56.333 49.337 C 57.296 49.050,58.608 48.643,59.250 48.433 L 60.417 48.051 60.371 47.067 C 60.011 39.307,55.037 32.533,48.155 30.434 L 46.733 30.000 39.491 30.018 L 32.250 30.036 30.583 30.484 M273.123 32.125 C 273.325 32.927,273.795 34.896,274.167 36.500 C 274.540 38.104,275.063 40.317,275.329 41.417 C 275.874 43.666,276.595 46.689,277.237 49.417 C 277.474 50.425,277.972 52.525,278.343 54.083 C 279.220 57.770,279.730 59.923,280.355 62.583 C 280.635 63.775,280.918 64.894,280.984 65.069 C 281.121 65.431,281.374 64.524,282.589 59.333 C 283.008 57.546,283.575 55.146,283.850 54.000 C 284.125 52.854,284.500 51.279,284.684 50.500 C 285.128 48.623,285.701 46.217,286.314 43.667 C 287.450 38.941,288.001 36.612,288.585 34.083 C 288.923 32.617,289.265 31.248,289.346 31.042 L 289.493 30.667 295.788 30.669 C 299.250 30.671,302.177 30.731,302.292 30.804 C 302.458 30.910,302.492 38.961,302.459 70.510 L 302.417 110.083 295.917 110.083 L 289.417 110.083 289.333 93.333 L 289.250 76.583 287.678 82.833 C 286.814 86.271,285.997 89.515,285.863 90.042 L 285.621 91.000 281.150 91.000 L 276.680 91.000 276.507 90.375 C 276.412 90.031,276.150 88.925,275.925 87.917 C 275.699 86.908,275.282 85.108,274.999 83.917 C 274.715 82.725,274.301 80.962,274.078 80.000 C 273.856 79.037,273.529 77.725,273.352 77.083 L 273.030 75.917 273.015 92.958 L 273.000 110.000 266.417 110.000 L 259.833 110.000 259.833 70.333 L 259.833 30.667 266.294 30.667 L 272.755 30.667 273.123 32.125 M382.250 70.500 L 382.250 110.083 378.833 110.136 C 376.954 110.165,374.273 110.138,372.875 110.077 L 370.333 109.965 370.333 77.232 L 370.333 44.500 368.833 44.500 L 367.333 44.500 367.333 37.665 L 367.333 30.830 374.792 30.873 L 382.250 30.917 382.250 70.500 M362.333 41.085 L 362.333 45.671 356.292 45.627 L 350.250 45.583 350.205 41.253 C 350.181 38.871,350.197 36.827,350.242 36.711 C 350.305 36.546,351.636 36.500,356.328 36.500 L 362.333 36.500 362.333 41.085 M333.366 51.597 C 337.158 52.776,339.744 54.844,341.265 57.917 C 342.568 60.550,342.494 58.857,342.497 85.875 L 342.500 110.000 340.937 110.000 L 339.374 110.000 339.032 109.042 C 338.843 108.515,338.597 107.783,338.485 107.417 C 338.373 107.050,338.178 106.504,338.053 106.203 L 337.825 105.657 336.902 106.653 C 335.336 108.345,333.199 109.604,330.333 110.522 L 328.583 111.083 323.667 111.082 L 318.750 111.080 317.364 110.545 C 313.449 109.035,310.855 106.310,309.367 102.143 L 308.750 100.417 308.696 93.763 C 308.624 84.848,309.045 82.803,311.681 79.250 C 314.553 75.378,316.587 74.673,324.883 74.669 L 330.682 74.667 330.633 70.362 L 330.583 66.058 330.124 65.364 C 329.396 64.265,328.984 64.167,325.105 64.168 C 319.746 64.169,319.167 64.635,319.167 68.943 C 319.167 70.147,319.116 70.517,318.958 70.459 C 318.607 70.329,315.556 69.388,312.750 68.545 L 310.083 67.743 310.037 65.177 C 309.924 58.871,313.416 53.488,318.804 51.663 L 320.250 51.174 326.116 51.170 C 331.959 51.167,331.988 51.168,333.366 51.597 M77.051 51.670 C 72.179 52.336,68.429 56.232,67.167 61.939 C 66.668 64.198,66.657 97.874,67.155 100.287 C 68.332 105.992,71.772 109.713,76.598 110.503 C 77.924 110.721,88.821 110.711,90.399 110.492 C 95.970 109.717,99.669 105.812,100.335 100.003 C 100.560 98.040,100.547 62.328,100.321 61.333 C 99.302 56.849,96.394 53.506,92.250 52.059 L 90.917 51.593 84.500 51.561 C 80.971 51.543,77.619 51.592,77.051 51.670 M120.499 51.671 C 118.066 51.956,115.276 53.467,112.832 55.824 C 111.997 56.630,111.393 57.096,111.326 56.988 C 111.264 56.888,110.930 55.800,110.583 54.570 L 109.952 52.333 108.559 52.333 L 107.166 52.333 107.208 81.125 L 107.250 109.917 112.917 109.917 L 118.583 109.917 118.667 87.917 C 118.759 63.507,118.663 65.427,119.840 64.437 L 120.359 64.000 123.738 64.000 C 127.535 64.000,127.840 64.084,128.574 65.334 C 128.914 65.913,128.917 66.064,128.961 87.958 L 129.006 110.000 134.836 110.000 L 140.667 110.000 140.667 88.592 C 140.667 63.977,140.586 65.154,142.345 64.244 C 143.173 63.816,148.855 63.897,149.659 64.349 C 150.946 65.072,150.843 63.028,150.836 87.909 L 150.829 110.167 156.835 110.167 L 162.842 110.167 162.793 86.542 L 162.743 62.917 162.228 61.142 C 160.893 56.536,158.841 53.945,155.260 52.338 C 153.458 51.529,152.799 51.473,145.833 51.530 L 139.417 51.583 138.408 52.050 C 137.508 52.466,136.301 53.473,135.570 54.417 C 135.364 54.683,135.293 54.702,135.216 54.512 C 134.758 53.385,132.547 51.956,130.828 51.677 C 129.614 51.481,122.163 51.476,120.499 51.671 M182.665 51.663 C 180.201 51.970,177.301 53.550,174.967 55.856 C 173.340 57.463,173.491 57.514,172.913 55.167 C 172.766 54.571,172.520 53.690,172.365 53.210 L 172.083 52.336 170.708 52.335 L 169.333 52.333 169.333 92.083 L 169.333 131.833 175.167 131.833 L 181.000 131.833 181.000 121.250 L 181.000 110.667 186.238 110.667 C 191.997 110.667,193.435 110.536,195.341 109.840 C 198.627 108.641,200.769 106.395,202.025 102.833 L 202.583 101.250 202.629 81.298 C 202.674 61.467,202.672 61.340,202.327 60.298 C 200.957 56.160,198.352 53.392,194.583 52.069 C 193.157 51.568,185.512 51.307,182.665 51.663 M362.125 81.125 L 362.168 110.167 356.250 110.167 L 350.333 110.167 350.333 87.917 L 350.333 65.667 348.833 65.667 L 347.333 65.667 347.333 58.944 C 347.333 55.247,347.384 52.171,347.446 52.109 C 347.508 52.047,350.827 52.016,354.821 52.040 L 362.083 52.083 362.125 81.125 M209.611 52.444 C 209.550 52.506,209.500 63.053,209.500 75.884 L 209.500 99.213 210.001 100.946 C 211.417 105.847,214.080 108.914,218.167 110.353 C 219.459 110.808,227.711 111.033,230.010 110.676 C 232.487 110.292,235.124 108.817,237.460 106.509 C 239.055 104.934,238.801 104.769,239.685 107.956 L 240.250 109.996 241.708 109.998 L 243.167 110.000 243.167 81.250 L 243.167 52.500 237.417 52.500 L 231.667 52.500 231.667 74.078 C 231.667 97.723,231.711 96.637,230.699 97.712 C 230.024 98.428,229.381 98.534,226.053 98.472 C 222.742 98.411,222.579 98.366,221.760 97.269 C 221.418 96.810,221.417 96.738,221.373 74.571 L 221.330 52.333 215.526 52.333 C 212.334 52.333,209.672 52.383,209.611 52.444 M87.811 64.561 C 89.073 65.771,89.012 64.891,88.962 81.386 L 88.917 96.110 88.417 96.912 C 87.606 98.214,87.229 98.333,83.939 98.333 C 80.676 98.333,80.051 98.198,79.256 97.318 C 78.458 96.435,78.477 96.880,78.533 80.667 L 78.583 66.083 78.965 65.368 C 79.668 64.051,79.916 63.984,83.864 64.037 L 87.312 64.083 87.811 64.561 M189.850 64.381 C 190.162 64.591,190.604 65.097,190.833 65.506 L 191.250 66.250 191.250 80.671 L 191.250 95.092 190.832 95.904 C 190.051 97.422,190.095 97.410,185.155 97.466 L 180.833 97.516 180.834 82.050 C 180.835 65.237,180.808 65.725,181.816 64.665 L 182.448 64.000 185.866 64.000 C 189.152 64.000,189.306 64.015,189.850 64.381 M322.623 87.738 C 321.029 88.307,320.666 89.278,320.669 92.963 C 320.674 97.371,321.014 97.714,325.479 97.806 C 330.354 97.907,330.664 97.504,330.666 91.075 C 330.666 88.827,330.608 87.842,330.467 87.700 C 330.171 87.404,323.468 87.437,322.623 87.738 " stroke="none" fill="#fbfbfb" fill-rule="evenodd"></path><path id="path1" d="M393.542 17.583 C 393.544 17.950,393.578 18.080,393.618 17.873 C 393.658 17.666,393.656 17.366,393.615 17.206 C 393.573 17.047,393.540 17.217,393.542 17.583 M393.579 31.917 C 393.579 38.792,393.600 41.628,393.625 38.221 C 393.650 34.813,393.650 29.188,393.625 25.721 C 393.600 22.253,393.579 25.042,393.579 31.917 M36.219 29.958 C 38.128 29.985,41.203 29.985,43.053 29.958 C 44.903 29.931,43.342 29.909,39.583 29.909 C 35.825 29.909,34.311 29.931,36.219 29.958 M289.442 30.792 C 289.372 30.905,294.298 30.903,300.000 30.786 C 301.237 30.761,299.386 30.723,295.885 30.703 C 292.384 30.683,289.485 30.723,289.442 30.792 M302.333 70.450 C 302.287 92.285,302.306 110.094,302.375 110.025 C 302.444 109.956,302.482 92.091,302.459 70.325 L 302.417 30.750 302.333 70.450 M374.750 30.957 L 382.166 31.003 382.209 70.502 L 382.251 110.000 382.251 70.458 L 382.250 30.917 374.792 30.914 L 367.333 30.911 374.750 30.957 M23.244 34.542 L 22.417 35.417 23.292 34.590 C 24.105 33.821,24.243 33.667,24.119 33.667 C 24.092 33.667,23.699 34.060,23.244 34.542 M350.240 41.083 C 350.240 43.558,350.263 44.594,350.291 43.385 C 350.320 42.176,350.320 40.151,350.291 38.885 C 350.263 37.619,350.240 38.608,350.240 41.083 M36.635 43.125 C 38.039 43.153,40.289 43.153,41.635 43.125 C 42.982 43.097,41.833 43.074,39.083 43.074 C 36.333 43.074,35.232 43.097,36.635 43.125 M368.042 44.456 C 368.477 44.490,369.190 44.490,369.625 44.456 C 370.060 44.422,369.704 44.393,368.833 44.393 C 367.962 44.393,367.606 44.422,368.042 44.456 M18.209 46.250 C 18.211 46.617,18.245 46.747,18.285 46.540 C 18.324 46.332,18.323 46.032,18.281 45.873 C 18.239 45.714,18.207 45.883,18.209 46.250 M47.899 49.583 C 47.899 50.867,47.926 51.370,47.957 50.701 C 47.989 50.032,47.989 48.982,47.957 48.368 C 47.925 47.753,47.899 48.300,47.899 49.583 M323.125 51.291 C 324.798 51.319,327.535 51.319,329.208 51.291 C 330.881 51.264,329.512 51.242,326.167 51.242 C 322.821 51.242,321.452 51.264,323.125 51.291 M347.409 52.209 C 347.365 52.323,347.350 55.417,347.375 59.084 L 347.421 65.750 347.460 58.960 L 347.500 52.170 354.792 52.125 L 362.083 52.080 354.786 52.040 C 349.068 52.009,347.472 52.045,347.409 52.209 M107.963 52.289 C 108.355 52.324,108.955 52.324,109.296 52.288 C 109.637 52.252,109.317 52.223,108.583 52.224 C 107.850 52.224,107.571 52.254,107.963 52.289 M169.244 52.375 C 169.200 52.490,169.184 70.433,169.207 92.250 L 169.250 131.917 175.167 131.917 L 181.083 131.917 181.085 121.250 L 181.087 110.583 181.042 121.208 L 180.998 131.833 175.165 131.833 L 169.333 131.833 169.333 92.090 L 169.333 52.347 170.708 52.291 L 172.083 52.235 170.703 52.201 C 169.726 52.177,169.300 52.228,169.244 52.375 M107.040 81.032 C 107.018 96.862,107.056 109.848,107.125 109.891 C 107.238 109.961,107.237 90.347,107.124 62.667 C 107.100 56.938,107.063 65.202,107.040 81.032 M231.581 74.167 C 231.581 86.129,231.601 91.023,231.625 85.042 C 231.649 79.060,231.649 69.273,231.625 63.292 C 231.601 57.310,231.581 62.204,231.581 74.167 M136.573 53.208 L 136.083 53.750 136.625 53.260 C 136.923 52.991,137.167 52.748,137.167 52.719 C 137.167 52.590,137.029 52.703,136.573 53.208 M198.993 54.708 C 199.684 55.444,199.833 55.577,199.833 55.451 C 199.833 55.425,199.477 55.068,199.042 54.660 L 198.250 53.917 198.993 54.708 M393.413 69.083 C 393.412 75.958,393.433 78.795,393.458 75.387 C 393.483 71.980,393.483 66.355,393.458 62.887 C 393.433 59.420,393.413 62.208,393.413 69.083 M202.747 80.500 C 202.747 90.904,202.767 95.160,202.792 89.958 C 202.816 84.756,202.816 76.244,202.792 71.042 C 202.767 65.840,202.747 70.096,202.747 80.500 M66.747 81.083 C 66.747 90.800,66.767 94.799,66.792 89.971 C 66.816 85.143,66.816 77.193,66.792 72.304 C 66.767 67.416,66.747 71.367,66.747 81.083 M141.573 64.875 L 141.083 65.417 141.625 64.927 C 141.923 64.658,142.167 64.414,142.167 64.385 C 142.167 64.257,142.029 64.370,141.573 64.875 M350.414 87.917 C 350.414 100.200,350.434 105.200,350.458 99.029 C 350.483 92.857,350.483 82.807,350.458 76.695 C 350.434 70.584,350.414 75.633,350.414 87.917 M118.667 88.033 C 118.621 100.106,118.640 109.927,118.709 109.858 C 118.778 109.789,118.816 99.911,118.792 87.908 L 118.750 66.083 118.667 88.033 M128.916 88.250 L 128.917 110.083 134.833 110.083 L 140.750 110.083 140.751 88.417 L 140.752 66.750 140.709 88.375 L 140.665 110.000 134.833 110.000 L 129.001 110.000 128.958 88.208 L 128.915 66.417 128.916 88.250 M191.205 67.333 C 191.205 67.654,191.240 67.785,191.282 67.625 C 191.323 67.465,191.323 67.202,191.282 67.042 C 191.240 66.881,191.205 67.012,191.205 67.333 M289.292 89.292 C 289.315 96.510,289.354 104.142,289.379 106.250 C 289.403 108.358,289.440 102.452,289.462 93.125 C 289.483 83.798,289.444 76.167,289.375 76.167 C 289.306 76.167,289.269 82.073,289.292 89.292 M310.194 81.590 C 309.914 82.203,309.968 82.334,310.270 81.777 C 310.411 81.517,310.495 81.273,310.457 81.235 C 310.419 81.196,310.300 81.357,310.194 81.590 M320.566 92.833 C 320.566 94.162,320.592 94.706,320.624 94.042 C 320.655 93.377,320.655 92.290,320.624 91.625 C 320.592 90.960,320.566 91.504,320.566 92.833 M32.167 96.557 C 32.396 96.817,32.733 97.108,32.917 97.202 C 33.268 97.383,33.257 97.372,32.334 96.582 L 31.751 96.083 32.167 96.557 M82.292 98.291 C 83.140 98.321,84.527 98.321,85.375 98.291 C 86.223 98.261,85.529 98.236,83.833 98.236 C 82.137 98.236,81.444 98.261,82.292 98.291 M224.958 98.458 C 225.806 98.488,227.194 98.488,228.042 98.458 C 228.890 98.427,228.196 98.403,226.500 98.403 C 224.804 98.403,224.110 98.427,224.958 98.458 M310.250 104.333 C 310.392 104.608,310.546 104.833,310.592 104.833 C 310.638 104.833,310.559 104.608,310.417 104.333 C 310.274 104.058,310.121 103.833,310.075 103.833 C 310.029 103.833,310.108 104.058,310.250 104.333 M336.906 106.542 L 336.417 107.083 336.958 106.594 C 337.463 106.138,337.577 106.000,337.448 106.000 C 337.419 106.000,337.175 106.244,336.906 106.542 M393.242 112.583 C 393.242 116.067,393.264 117.515,393.291 115.803 C 393.318 114.090,393.319 111.240,393.291 109.469 C 393.264 107.699,393.242 109.100,393.242 112.583 M70.660 107.542 C 71.350 108.278,71.500 108.410,71.500 108.285 C 71.500 108.258,71.144 107.902,70.708 107.493 L 69.917 106.750 70.660 107.542 M213.583 107.667 C 213.941 108.033,214.272 108.333,214.318 108.333 C 214.363 108.333,214.108 108.033,213.750 107.667 C 213.392 107.300,213.062 107.000,213.016 107.000 C 212.970 107.000,213.225 107.300,213.583 107.667 M240.875 110.123 C 241.310 110.157,242.023 110.157,242.458 110.123 C 242.894 110.088,242.537 110.060,241.667 110.060 C 240.796 110.060,240.440 110.088,240.875 110.123 M375.052 110.125 C 376.318 110.153,378.343 110.153,379.552 110.124 C 380.761 110.096,379.725 110.073,377.250 110.073 C 374.775 110.073,373.786 110.096,375.052 110.125 M321.458 111.125 C 322.673 111.153,324.660 111.153,325.875 111.125 C 327.090 111.096,326.096 111.073,323.667 111.073 C 321.237 111.073,320.244 111.096,321.458 111.125 " stroke="none" fill="#84b4cf" fill-rule="evenodd"></path><path id="path2" d="M9.667 0.189 C 6.732 0.669,2.958 3.137,2.308 5.001 C 2.212 5.275,2.070 5.500,1.991 5.500 C 1.829 5.500,1.167 6.923,1.167 7.271 C 1.167 7.397,1.107 7.500,1.035 7.500 C 0.857 7.500,0.403 9.272,0.152 10.940 C -0.041 12.223,0.219 127.698,0.418 128.978 C 0.683 130.687,0.897 131.762,0.987 131.833 C 1.045 131.879,1.225 132.346,1.386 132.870 C 1.548 133.394,1.771 133.919,1.882 134.037 C 1.993 134.154,2.254 134.599,2.462 135.025 C 2.670 135.451,2.951 135.843,3.087 135.895 C 3.222 135.947,3.333 136.076,3.333 136.181 C 3.333 136.432,4.475 137.534,5.142 137.929 C 5.431 138.099,5.667 138.285,5.667 138.341 C 5.667 138.397,6.060 138.624,6.542 138.845 C 7.023 139.066,7.454 139.295,7.500 139.355 C 7.546 139.414,8.146 139.640,8.833 139.856 L 10.083 140.250 200.000 140.250 L 389.917 140.250 391.167 139.856 C 391.854 139.640,392.454 139.414,392.500 139.355 C 392.546 139.295,392.977 139.066,393.458 138.845 C 393.940 138.624,394.333 138.397,394.333 138.341 C 394.333 138.285,394.573 138.097,394.866 137.924 C 395.586 137.498,396.666 136.466,396.666 136.203 C 396.667 136.086,396.778 135.947,396.913 135.895 C 397.049 135.843,397.330 135.451,397.538 135.025 C 397.746 134.599,398.007 134.154,398.118 134.037 C 398.229 133.919,398.452 133.394,398.614 132.870 C 398.775 132.346,398.955 131.879,399.013 131.833 C 399.103 131.762,399.319 130.677,399.582 128.981 C 399.780 127.700,400.041 12.222,399.848 10.941 C 399.598 9.273,399.143 7.500,398.965 7.500 C 398.893 7.500,398.833 7.397,398.833 7.271 C 398.833 6.923,398.171 5.500,398.009 5.500 C 397.930 5.500,397.788 5.275,397.692 5.001 C 397.163 3.484,394.003 1.163,391.396 0.378 C 390.298 0.048,11.678 -0.141,9.667 0.189 M378.924 4.919 C 386.376 5.864,390.965 8.900,392.933 14.188 C 393.859 16.678,393.830 14.947,393.669 58.000 C 393.587 80.046,393.503 103.521,393.483 110.167 C 393.437 125.685,393.373 126.450,391.885 129.498 C 390.431 132.475,387.746 134.535,384.285 135.330 C 382.829 135.665,382.421 135.667,317.910 135.667 L 253.000 135.667 253.000 70.167 L 253.000 4.667 314.965 4.667 C 369.336 4.667,377.175 4.698,378.924 4.919 M47.649 30.090 C 48.735 30.345,49.118 30.493,50.957 31.362 C 56.311 33.891,60.178 40.304,60.533 47.241 L 60.583 48.233 59.333 48.625 C 58.646 48.841,57.333 49.241,56.417 49.513 C 55.500 49.785,54.000 50.234,53.083 50.511 C 49.641 51.552,48.573 51.868,48.227 51.949 C 47.876 52.030,47.869 51.988,47.804 49.474 C 47.714 45.975,46.852 44.134,45.017 43.522 C 44.212 43.254,34.018 43.262,33.383 43.531 C 32.572 43.875,31.690 44.846,31.378 45.739 C 30.917 47.059,30.923 93.002,31.384 94.674 C 31.718 95.886,32.373 96.727,33.272 97.103 C 34.214 97.497,44.367 97.426,45.250 97.019 C 47.150 96.144,47.663 94.963,47.665 91.458 C 47.667 88.383,47.478 88.567,49.867 89.326 C 50.719 89.597,52.317 90.089,53.417 90.421 C 54.517 90.752,55.829 91.161,56.333 91.329 C 56.837 91.498,58.019 91.870,58.959 92.157 L 60.668 92.679 60.571 93.631 C 59.684 102.337,54.950 108.489,47.704 110.351 L 45.825 110.833 39.081 110.833 C 31.530 110.833,31.233 110.797,28.428 109.544 C 22.889 107.070,19.023 101.681,18.175 95.250 C 17.843 92.728,18.014 45.239,18.361 43.917 C 20.468 35.872,24.519 31.556,31.333 30.093 C 32.971 29.741,46.159 29.738,47.649 30.090 M259.833 70.333 L 259.833 109.833 266.333 109.833 L 272.833 109.833 272.833 92.464 C 272.833 74.356,272.866 73.561,273.488 76.583 C 273.693 77.578,274.375 80.523,274.917 82.750 C 275.073 83.392,275.375 84.667,275.587 85.583 C 275.800 86.500,276.156 88.037,276.380 89.000 L 276.785 90.750 281.124 90.794 L 285.462 90.839 285.801 89.544 C 285.987 88.832,286.839 85.420,287.695 81.961 C 288.550 78.501,289.306 75.670,289.375 75.669 C 289.444 75.668,289.500 83.392,289.500 92.833 L 289.500 110.000 295.833 110.000 L 302.167 110.000 302.167 70.417 L 302.167 30.833 295.875 30.834 L 289.583 30.835 289.030 33.126 C 288.459 35.491,288.094 37.019,287.109 41.167 C 286.794 42.496,286.406 44.108,286.247 44.750 C 286.089 45.392,285.743 46.835,285.480 47.958 C 284.823 50.755,284.130 53.670,283.510 56.250 C 283.223 57.442,282.840 59.092,282.657 59.917 C 282.475 60.742,282.182 61.942,282.006 62.583 C 281.830 63.225,281.597 64.219,281.488 64.792 C 281.166 66.486,281.017 66.238,280.158 62.579 C 279.879 61.390,279.420 59.442,279.139 58.250 C 278.858 57.058,278.412 55.165,278.147 54.042 C 277.883 52.919,277.447 51.081,277.178 49.958 C 276.910 48.835,276.492 47.017,276.251 45.917 C 276.009 44.817,275.745 43.767,275.664 43.583 C 275.583 43.400,275.433 42.800,275.330 42.250 C 275.227 41.700,275.000 40.725,274.825 40.083 C 274.650 39.442,274.359 38.242,274.178 37.417 C 273.719 35.329,273.035 32.387,272.811 31.542 L 272.623 30.833 266.228 30.833 L 259.833 30.833 259.833 70.333 M367.500 37.660 L 367.500 44.154 368.958 44.202 L 370.417 44.250 370.459 77.042 L 370.501 109.833 375.813 109.833 C 378.735 109.833,381.359 109.880,381.646 109.938 L 382.167 110.042 382.167 70.604 L 382.167 31.167 374.833 31.167 L 367.500 31.167 367.500 37.660 M350.333 41.083 L 350.333 45.500 356.250 45.500 L 362.167 45.500 362.167 41.083 L 362.167 36.667 356.250 36.667 L 350.333 36.667 350.333 41.083 M91.657 51.739 C 95.870 52.866,98.689 55.677,100.168 60.227 L 100.675 61.787 100.626 81.185 L 100.577 100.583 100.135 102.083 C 98.740 106.821,96.165 109.340,91.626 110.411 C 88.844 111.067,77.809 111.064,75.449 110.406 C 71.588 109.330,68.860 106.558,67.483 102.308 C 66.642 99.713,66.649 99.928,66.701 80.500 L 66.750 62.250 67.351 60.500 C 69.050 55.552,72.007 52.554,75.996 51.735 C 76.682 51.595,77.275 51.447,77.316 51.407 C 77.652 51.070,90.248 51.362,91.657 51.739 M131.689 51.726 C 133.078 52.154,134.157 52.838,134.883 53.750 L 135.349 54.336 136.420 53.265 C 138.276 51.410,138.195 51.425,146.057 51.369 L 152.697 51.322 154.140 51.762 C 158.659 53.139,161.590 56.807,162.652 62.417 C 162.994 64.219,162.999 64.639,163.000 87.292 L 163.000 110.333 156.917 110.333 L 150.833 110.333 150.831 88.208 L 150.828 66.083 150.453 65.417 C 149.822 64.295,149.364 64.167,145.969 64.167 C 142.274 64.167,141.900 64.303,141.150 65.917 C 140.854 66.555,140.841 67.494,140.837 88.375 L 140.833 110.167 134.836 110.167 L 128.839 110.167 128.795 88.125 L 128.750 66.083 128.365 65.362 C 127.759 64.226,127.389 64.138,123.463 64.199 L 120.128 64.250 119.584 64.880 C 118.798 65.790,118.833 64.679,118.833 88.354 L 118.833 110.167 112.917 110.167 L 107.000 110.167 107.000 81.167 L 107.000 52.167 108.504 52.167 C 110.251 52.167,110.061 51.958,110.782 54.667 C 111.434 57.119,111.306 57.065,112.887 55.548 C 115.089 53.434,116.891 52.367,119.307 51.746 C 121.578 51.162,129.818 51.149,131.689 51.726 M193.916 51.746 C 198.092 52.831,200.937 55.626,202.418 60.100 L 203.000 61.857 202.986 80.470 C 202.978 90.707,202.910 99.496,202.835 100.000 C 201.969 105.799,199.051 109.207,193.914 110.421 C 192.245 110.815,191.934 110.833,186.751 110.833 L 181.333 110.833 181.333 121.300 C 181.333 129.219,181.285 131.815,181.133 131.967 C 180.824 132.276,169.444 132.251,169.187 131.941 C 169.049 131.775,169.010 121.214,169.041 91.983 L 169.083 52.250 170.675 52.203 L 172.267 52.155 172.540 53.203 C 172.940 54.738,173.528 56.739,173.603 56.820 C 173.639 56.859,174.287 56.292,175.043 55.561 C 177.228 53.446,178.820 52.486,181.250 51.817 C 183.718 51.139,191.412 51.095,193.916 51.746 M319.884 51.517 C 314.594 52.400,310.360 58.233,310.201 64.858 L 310.134 67.633 310.692 67.751 C 310.999 67.816,311.925 68.081,312.750 68.339 C 315.558 69.219,318.082 69.984,318.524 70.089 L 318.964 70.194 319.024 68.222 C 319.139 64.399,319.700 64.000,324.964 64.000 C 330.762 64.000,330.833 64.079,330.833 70.492 L 330.833 74.667 325.530 74.667 C 318.448 74.667,316.942 74.986,313.982 77.112 C 312.064 78.490,310.093 81.678,309.311 84.668 C 308.290 88.568,308.741 100.555,310.011 103.300 C 310.280 103.881,310.500 104.393,310.500 104.437 C 310.500 105.655,314.291 109.045,316.917 110.176 L 318.250 110.750 323.750 110.750 L 329.250 110.750 330.583 110.274 C 333.363 109.282,335.286 108.097,336.958 106.348 C 337.894 105.369,338.019 105.367,338.314 106.333 C 338.412 106.654,338.706 107.554,338.969 108.333 L 339.445 109.750 340.889 109.798 L 342.333 109.846 342.368 86.715 C 342.407 60.308,342.438 62.052,341.890 60.083 C 340.707 55.837,337.118 52.561,332.500 51.512 C 331.591 51.305,321.127 51.309,319.884 51.517 M221.373 74.125 L 221.417 96.083 221.833 96.917 C 222.460 98.170,223.091 98.344,226.833 98.291 C 230.006 98.246,230.285 98.172,230.947 97.197 C 231.235 96.772,231.254 95.665,231.333 74.583 L 231.417 52.417 237.292 52.373 L 243.167 52.329 243.167 81.331 L 243.167 110.333 241.700 110.333 L 240.233 110.333 239.957 109.542 C 239.805 109.106,239.561 108.263,239.414 107.667 C 239.267 107.071,239.062 106.341,238.958 106.044 L 238.768 105.505 237.509 106.718 C 233.615 110.468,232.261 110.917,224.833 110.917 L 219.250 110.917 217.951 110.468 C 213.771 109.024,210.632 105.136,209.596 100.117 C 209.322 98.792,209.176 52.546,209.444 52.278 C 209.506 52.217,212.204 52.167,215.442 52.167 L 221.329 52.167 221.373 74.125 M347.667 58.994 L 347.667 65.654 349.125 65.702 L 350.583 65.750 350.626 87.875 L 350.668 110.000 356.334 110.000 L 362.000 110.000 362.000 81.167 L 362.000 52.333 354.833 52.333 L 347.667 52.333 347.667 58.994 M80.236 64.328 C 78.664 64.964,78.645 65.179,78.702 82.000 C 78.762 99.768,78.188 97.999,83.895 98.000 L 87.206 98.000 87.830 97.375 C 88.841 96.363,88.833 96.493,88.833 81.272 C 88.833 65.088,88.818 64.934,87.132 64.346 C 86.525 64.135,80.752 64.120,80.236 64.328 M182.293 64.428 C 182.041 64.565,181.666 64.993,181.459 65.380 L 181.083 66.083 181.037 81.750 L 180.990 97.417 184.787 97.373 C 189.675 97.317,190.199 97.155,190.851 95.500 C 191.152 94.737,191.286 68.776,190.998 66.917 C 190.793 65.587,190.332 64.787,189.558 64.417 C 188.803 64.057,182.961 64.066,182.293 64.428 M330.800 91.542 C 330.738 96.177,330.628 96.664,329.450 97.517 L 328.783 98.000 325.886 98.000 C 321.003 98.000,320.503 97.540,320.501 93.050 C 320.500 90.179,320.690 89.175,321.383 88.386 C 322.132 87.533,322.196 87.522,326.719 87.511 L 330.855 87.500 330.800 91.542 " stroke="none" fill="#04649d" fill-rule="evenodd"></path><path id="path3" d="M376.128 4.787 C 376.428 4.825,376.878 4.824,377.128 4.786 C 377.378 4.748,377.133 4.717,376.583 4.718 C 376.033 4.719,375.828 4.750,376.128 4.787 M388.833 8.552 C 388.833 8.581,389.077 8.825,389.375 9.094 L 389.917 9.583 389.427 9.042 C 388.971 8.537,388.833 8.423,388.833 8.552 M392.250 12.833 C 392.392 13.108,392.546 13.333,392.592 13.333 C 392.638 13.333,392.559 13.108,392.417 12.833 C 392.274 12.558,392.121 12.333,392.075 12.333 C 392.029 12.333,392.108 12.558,392.250 12.833 M393.742 25.667 C 393.742 29.104,393.764 30.510,393.791 28.792 C 393.819 27.073,393.819 24.260,393.791 22.542 C 393.764 20.823,393.742 22.229,393.742 25.667 M262.947 30.791 C 264.706 30.818,267.631 30.818,269.447 30.791 C 271.264 30.765,269.825 30.742,266.250 30.742 C 262.675 30.742,261.189 30.764,262.947 30.791 M302.249 70.417 C 302.249 92.233,302.268 101.183,302.292 90.305 C 302.315 79.427,302.315 61.577,302.292 50.638 C 302.268 39.700,302.249 48.600,302.249 70.417 M367.373 37.625 L 367.417 44.250 368.875 44.298 L 370.333 44.346 370.375 77.048 L 370.418 109.750 370.417 77.000 L 370.417 44.250 368.958 44.202 L 367.500 44.154 367.500 37.662 L 367.500 31.170 374.875 31.125 L 382.250 31.080 374.790 31.040 L 367.330 31.000 367.373 37.625 M50.667 31.241 C 50.667 31.287,50.892 31.441,51.167 31.583 C 51.442 31.726,51.667 31.804,51.667 31.759 C 51.667 31.713,51.442 31.559,51.167 31.417 C 50.892 31.274,50.667 31.196,50.667 31.241 M54.000 33.385 C 54.000 33.414,54.244 33.658,54.542 33.927 L 55.083 34.417 54.594 33.875 C 54.138 33.370,54.000 33.257,54.000 33.385 M55.167 34.552 C 55.167 34.581,55.410 34.825,55.708 35.094 L 56.250 35.583 55.760 35.042 C 55.304 34.537,55.167 34.423,55.167 34.552 M362.205 41.040 L 362.167 45.496 356.208 45.542 L 350.250 45.588 356.214 45.627 C 360.901 45.658,362.194 45.621,362.258 45.456 C 362.303 45.340,362.318 43.296,362.292 40.914 L 362.244 36.583 362.205 41.040 M36.552 43.291 C 38.002 43.319,40.327 43.319,41.719 43.291 C 43.111 43.263,41.925 43.241,39.083 43.241 C 36.242 43.241,35.103 43.264,36.552 43.291 M286.095 44.929 C 286.034 45.173,286.016 45.405,286.055 45.444 C 286.094 45.483,286.177 45.316,286.238 45.071 C 286.299 44.827,286.317 44.595,286.278 44.556 C 286.239 44.517,286.157 44.684,286.095 44.929 M31.039 47.000 C 31.039 47.321,31.073 47.452,31.115 47.292 C 31.157 47.131,31.157 46.869,31.115 46.708 C 31.073 46.548,31.039 46.679,31.039 47.000 M276.503 47.264 C 276.504 47.440,276.581 47.696,276.674 47.833 C 276.798 48.016,276.813 47.948,276.732 47.583 C 276.595 46.971,276.499 46.837,276.503 47.264 M285.030 49.364 C 284.931 49.754,284.879 50.101,284.914 50.136 C 284.949 50.172,285.063 49.885,285.167 49.500 C 285.270 49.115,285.323 48.767,285.283 48.727 C 285.243 48.687,285.129 48.974,285.030 49.364 M80.531 51.458 C 82.335 51.485,85.335 51.485,87.197 51.458 C 89.060 51.431,87.583 51.409,83.917 51.409 C 80.250 51.409,78.726 51.431,80.531 51.458 M123.125 51.458 C 124.523 51.486,126.810 51.486,128.208 51.458 C 129.606 51.430,128.462 51.407,125.667 51.407 C 122.871 51.407,121.727 51.430,123.125 51.458 M139.875 51.448 C 140.035 51.490,140.298 51.490,140.458 51.448 C 140.619 51.406,140.487 51.372,140.167 51.372 C 139.846 51.372,139.715 51.406,139.875 51.448 M185.302 51.458 C 186.706 51.486,188.956 51.486,190.302 51.458 C 191.648 51.430,190.500 51.407,187.750 51.407 C 185.000 51.407,183.898 51.430,185.302 51.458 M169.077 52.375 C 169.034 52.490,169.017 70.433,169.041 92.250 L 169.083 131.917 169.167 92.042 C 169.213 70.110,169.229 52.167,169.203 52.167 C 169.177 52.167,169.121 52.260,169.077 52.375 M209.410 52.375 C 209.367 52.490,209.350 63.083,209.374 75.917 L 209.417 99.250 209.500 75.708 C 209.546 62.760,209.562 52.167,209.536 52.167 C 209.511 52.167,209.454 52.260,209.410 52.375 M347.540 58.957 L 347.579 65.750 347.625 59.042 L 347.670 52.333 354.835 52.333 L 361.999 52.333 362.042 81.125 L 362.085 109.917 362.084 81.083 L 362.083 52.250 354.792 52.207 L 347.500 52.163 347.540 58.957 M231.410 52.542 C 231.367 52.656,231.350 62.500,231.374 74.417 L 231.417 96.083 231.500 74.208 C 231.546 62.177,231.562 52.333,231.536 52.333 C 231.511 52.333,231.454 52.427,231.410 52.542 M199.160 54.708 C 199.850 55.444,200.000 55.577,200.000 55.451 C 200.000 55.425,199.644 55.068,199.208 54.660 L 198.417 53.917 199.160 54.708 M393.579 69.000 C 393.579 75.829,393.600 78.623,393.625 75.208 C 393.650 71.794,393.650 66.206,393.625 62.792 C 393.600 59.377,393.579 62.171,393.579 69.000 M68.027 58.590 C 67.748 59.203,67.801 59.334,68.103 58.777 C 68.244 58.517,68.328 58.273,68.290 58.235 C 68.252 58.196,68.134 58.357,68.027 58.590 M279.503 59.931 C 279.504 60.106,279.581 60.362,279.674 60.500 C 279.798 60.683,279.813 60.615,279.732 60.250 C 279.595 59.637,279.499 59.504,279.503 59.931 M100.581 80.667 C 100.581 91.254,100.601 95.585,100.625 90.292 C 100.649 84.998,100.649 76.335,100.625 71.042 C 100.601 65.748,100.581 70.079,100.581 80.667 M202.914 80.500 C 202.914 90.904,202.934 95.160,202.958 89.958 C 202.983 84.756,202.983 76.244,202.958 71.042 C 202.934 65.840,202.914 70.096,202.914 80.500 M310.065 65.333 C 310.065 66.571,310.092 67.077,310.124 66.458 C 310.156 65.840,310.156 64.827,310.124 64.208 C 310.092 63.590,310.065 64.096,310.065 65.333 M342.414 86.750 C 342.414 99.492,342.434 104.680,342.458 98.279 C 342.482 91.878,342.482 81.453,342.458 75.112 C 342.434 68.771,342.414 74.008,342.414 86.750 M82.208 64.124 C 83.010 64.155,84.323 64.155,85.125 64.124 C 85.927 64.094,85.271 64.069,83.667 64.069 C 82.063 64.069,81.406 64.094,82.208 64.124 M122.208 64.124 C 123.010 64.155,124.323 64.155,125.125 64.124 C 125.927 64.094,125.271 64.069,123.667 64.069 C 122.063 64.069,121.406 64.094,122.208 64.124 M144.550 64.124 C 145.356 64.155,146.631 64.155,147.383 64.124 C 148.135 64.093,147.475 64.068,145.917 64.068 C 144.358 64.068,143.743 64.094,144.550 64.124 M184.542 64.124 C 185.344 64.155,186.656 64.155,187.458 64.124 C 188.260 64.094,187.604 64.069,186.000 64.069 C 184.396 64.069,183.740 64.094,184.542 64.124 M350.581 87.917 C 350.581 100.108,350.601 105.071,350.625 98.945 C 350.649 92.819,350.649 82.844,350.625 76.779 C 350.601 70.713,350.581 75.725,350.581 87.917 M180.913 82.333 C 180.913 90.721,180.934 94.152,180.958 89.958 C 180.983 85.765,180.983 78.902,180.958 74.708 C 180.934 70.515,180.913 73.946,180.913 82.333 M272.874 92.521 L 272.914 109.917 272.999 92.667 C 273.045 83.179,273.129 75.604,273.186 75.833 C 273.276 76.200,273.291 76.207,273.311 75.895 C 273.323 75.700,273.221 75.447,273.083 75.333 C 272.861 75.149,272.838 77.075,272.874 92.521 M315.625 75.929 C 315.002 76.267,315.040 76.407,315.667 76.083 C 315.942 75.941,316.167 75.789,316.167 75.746 C 316.167 75.638,316.149 75.645,315.625 75.929 M308.742 93.000 C 308.742 96.346,308.764 97.715,308.791 96.042 C 308.819 94.369,308.819 91.631,308.791 89.958 C 308.764 88.285,308.742 89.654,308.742 93.000 M330.738 91.333 C 330.738 93.487,330.762 94.369,330.791 93.292 C 330.820 92.215,330.820 90.452,330.791 89.375 C 330.762 88.298,330.738 89.179,330.738 91.333 M31.039 93.500 C 31.039 93.821,31.073 93.952,31.115 93.792 C 31.157 93.631,31.157 93.369,31.115 93.208 C 31.073 93.048,31.039 93.179,31.039 93.500 M393.413 106.333 C 393.413 113.254,393.433 116.085,393.458 112.625 C 393.483 109.165,393.483 103.502,393.458 100.042 C 393.433 96.581,393.413 99.412,393.413 106.333 M18.367 96.417 C 18.367 96.600,18.427 96.938,18.500 97.167 C 18.606 97.497,18.633 97.514,18.633 97.250 C 18.633 97.067,18.573 96.729,18.500 96.500 C 18.394 96.170,18.367 96.153,18.367 96.417 M36.635 97.458 C 38.131 97.486,40.531 97.486,41.969 97.458 C 43.407 97.430,42.183 97.408,39.250 97.408 C 36.317 97.408,35.140 97.430,36.635 97.458 M183.551 97.458 C 184.541 97.487,186.116 97.487,187.051 97.458 C 187.985 97.428,187.175 97.404,185.250 97.404 C 183.325 97.404,182.560 97.428,183.551 97.458 M325.833 97.833 L 322.750 97.928 325.750 97.961 C 327.466 97.981,328.857 97.926,329.000 97.833 C 329.137 97.744,329.175 97.687,329.083 97.705 C 328.992 97.724,327.529 97.781,325.833 97.833 M82.217 98.124 C 83.116 98.154,84.541 98.154,85.384 98.124 C 86.227 98.094,85.492 98.069,83.750 98.069 C 82.008 98.070,81.318 98.094,82.217 98.124 M223.000 98.159 C 223.137 98.252,223.394 98.329,223.569 98.331 C 223.996 98.334,223.863 98.239,223.250 98.102 C 222.885 98.020,222.817 98.036,223.000 98.159 M308.845 99.597 C 308.851 99.865,308.923 100.233,309.004 100.417 C 309.103 100.639,309.119 100.501,309.053 100.000 C 308.936 99.117,308.828 98.908,308.845 99.597 M202.705 100.333 C 202.705 100.654,202.740 100.785,202.782 100.625 C 202.823 100.465,202.823 100.202,202.782 100.042 C 202.740 99.881,202.705 100.013,202.705 100.333 M67.845 103.417 C 67.845 103.508,67.952 103.771,68.083 104.000 C 68.214 104.229,68.322 104.342,68.322 104.250 C 68.322 104.158,68.214 103.896,68.083 103.667 C 67.952 103.438,67.845 103.325,67.845 103.417 M23.583 106.333 C 24.035 106.792,24.442 107.167,24.487 107.167 C 24.533 107.167,24.201 106.792,23.750 106.333 C 23.299 105.875,22.892 105.500,22.846 105.500 C 22.800 105.500,23.132 105.875,23.583 106.333 M213.333 107.583 C 213.644 107.904,213.936 108.167,213.982 108.167 C 214.028 108.167,213.811 107.904,213.500 107.583 C 213.189 107.263,212.897 107.000,212.851 107.000 C 212.805 107.000,213.022 107.263,213.333 107.583 M374.885 109.958 C 376.151 109.986,378.176 109.986,379.385 109.958 C 380.594 109.929,379.558 109.906,377.083 109.906 C 374.608 109.906,373.619 109.930,374.885 109.958 M109.969 110.125 C 111.648 110.152,114.348 110.152,115.969 110.125 C 117.590 110.097,116.217 110.075,112.917 110.075 C 109.617 110.075,108.290 110.098,109.969 110.125 M240.875 110.289 C 241.310 110.324,242.023 110.324,242.458 110.289 C 242.894 110.255,242.537 110.227,241.667 110.227 C 240.796 110.227,240.440 110.255,240.875 110.289 M80.053 110.792 C 81.961 110.818,85.036 110.818,86.886 110.791 C 88.736 110.765,87.175 110.743,83.417 110.743 C 79.658 110.743,78.145 110.765,80.053 110.792 M181.243 110.875 C 181.199 110.990,181.184 115.771,181.208 121.500 L 181.253 131.917 181.293 121.377 L 181.333 110.838 186.958 110.792 L 192.583 110.745 186.953 110.706 C 182.573 110.675,181.305 110.713,181.243 110.875 M321.375 110.958 C 322.635 110.986,324.698 110.986,325.958 110.958 C 327.219 110.930,326.188 110.906,323.667 110.906 C 321.146 110.906,320.115 110.930,321.375 110.958 M393.209 124.583 C 393.211 124.950,393.245 125.080,393.285 124.873 C 393.324 124.666,393.323 124.366,393.281 124.206 C 393.239 124.047,393.207 124.217,393.209 124.583 M389.833 132.250 C 389.428 132.662,389.135 133.000,389.181 133.000 C 389.226 133.000,389.595 132.662,390.000 132.250 C 390.405 131.837,390.699 131.500,390.653 131.500 C 390.607 131.500,390.238 131.837,389.833 132.250 M172.208 132.125 C 173.835 132.152,176.498 132.152,178.125 132.125 C 179.752 132.097,178.421 132.075,175.167 132.075 C 171.912 132.075,170.581 132.097,172.208 132.125 M382.375 135.615 C 382.535 135.657,382.798 135.657,382.958 135.615 C 383.119 135.573,382.988 135.539,382.667 135.539 C 382.346 135.539,382.215 135.573,382.375 135.615 " stroke="none" fill="#458cb6" fill-rule="evenodd"></path><path id="path4" d="M283.695 4.792 C 300.531 4.815,328.131 4.815,345.028 4.792 C 361.925 4.768,348.150 4.749,314.417 4.749 C 280.683 4.749,266.858 4.768,283.695 4.792 M393.709 18.917 C 393.711 19.283,393.745 19.414,393.785 19.206 C 393.824 18.999,393.823 18.699,393.781 18.540 C 393.739 18.380,393.707 18.550,393.709 18.917 M353.302 36.625 C 354.981 36.652,357.681 36.652,359.302 36.625 C 360.924 36.597,359.550 36.575,356.250 36.575 C 352.950 36.575,351.624 36.598,353.302 36.625 M393.576 50.500 C 393.576 53.938,393.598 55.344,393.625 53.625 C 393.652 51.906,393.652 49.094,393.625 47.375 C 393.598 45.656,393.576 47.063,393.576 50.500 M18.081 70.583 C 18.081 83.600,18.101 88.900,18.125 82.362 C 18.149 75.824,18.149 65.174,18.125 58.695 C 18.101 52.217,18.081 57.567,18.081 70.583 M30.914 70.250 C 30.914 82.808,30.934 87.921,30.958 81.612 C 30.983 75.303,30.983 65.028,30.958 58.779 C 30.934 52.530,30.914 57.692,30.914 70.250 M143.448 51.458 C 145.023 51.485,147.648 51.485,149.281 51.458 C 150.914 51.431,149.625 51.408,146.417 51.408 C 143.208 51.408,141.872 51.431,143.448 51.458 M212.448 52.291 C 214.023 52.319,216.648 52.319,218.281 52.291 C 219.914 52.264,218.625 52.242,215.417 52.242 C 212.208 52.242,210.872 52.264,212.448 52.291 M234.448 52.458 C 236.023 52.485,238.648 52.485,240.281 52.458 C 241.914 52.431,240.625 52.408,237.417 52.408 C 234.208 52.408,232.872 52.431,234.448 52.458 M158.750 54.667 C 159.108 55.033,159.438 55.333,159.484 55.333 C 159.530 55.333,159.275 55.033,158.917 54.667 C 158.559 54.300,158.228 54.000,158.182 54.000 C 158.137 54.000,158.392 54.300,158.750 54.667 M113.073 55.375 L 112.583 55.917 113.125 55.427 C 113.423 55.158,113.667 54.914,113.667 54.885 C 113.667 54.757,113.529 54.870,113.073 55.375 M323.208 64.124 C 324.194 64.154,325.806 64.154,326.792 64.124 C 327.777 64.095,326.971 64.071,325.000 64.071 C 323.029 64.071,322.223 64.095,323.208 64.124 M162.914 87.333 C 162.914 99.846,162.934 104.965,162.958 98.708 C 162.983 92.452,162.983 82.215,162.958 75.958 C 162.934 69.702,162.914 74.821,162.914 87.333 M330.739 70.750 C 330.739 72.950,330.762 73.827,330.791 72.699 C 330.820 71.571,330.820 69.771,330.791 68.699 C 330.762 67.627,330.738 68.550,330.739 70.750 M78.580 81.417 C 78.580 89.300,78.600 92.501,78.625 88.529 C 78.650 84.558,78.650 78.108,78.625 74.196 C 78.600 70.284,78.580 73.533,78.580 81.417 M88.913 81.250 C 88.913 89.042,88.933 92.205,88.958 88.279 C 88.983 84.354,88.983 77.979,88.958 74.113 C 88.933 70.246,88.913 73.458,88.913 81.250 M319.061 68.750 C 319.061 69.667,319.089 70.020,319.123 69.536 C 319.157 69.052,319.156 68.302,319.122 67.869 C 319.088 67.437,319.060 67.833,319.061 68.750 M191.246 81.000 C 191.246 88.287,191.267 91.269,191.292 87.625 C 191.317 83.981,191.317 78.019,191.292 74.375 C 191.267 70.731,191.246 73.712,191.246 81.000 M393.409 87.667 C 393.409 91.104,393.431 92.510,393.458 90.792 C 393.485 89.073,393.485 86.260,393.458 84.542 C 393.431 82.823,393.409 84.229,393.409 87.667 M47.732 91.250 C 47.733 92.533,47.759 93.036,47.791 92.368 C 47.822 91.699,47.822 90.649,47.790 90.034 C 47.758 89.420,47.732 89.967,47.732 91.250 M278.865 90.958 C 280.029 90.986,281.979 90.986,283.198 90.958 C 284.418 90.929,283.467 90.906,281.083 90.906 C 278.700 90.906,277.702 90.929,278.865 90.958 M312.667 107.583 C 312.978 107.904,313.270 108.167,313.315 108.167 C 313.361 108.167,313.144 107.904,312.833 107.583 C 312.522 107.263,312.230 107.000,312.185 107.000 C 312.139 107.000,312.356 107.263,312.667 107.583 M263.042 109.958 C 264.852 109.985,267.815 109.985,269.625 109.958 C 271.435 109.931,269.954 109.909,266.333 109.909 C 262.712 109.909,261.231 109.931,263.042 109.958 M340.213 109.956 C 340.652 109.990,341.327 109.990,341.713 109.955 C 342.100 109.920,341.742 109.892,340.917 109.892 C 340.092 109.893,339.775 109.922,340.213 109.956 M370.955 109.954 C 371.250 109.990,371.775 109.991,372.121 109.955 C 372.467 109.919,372.225 109.889,371.583 109.888 C 370.942 109.887,370.659 109.917,370.955 109.954 M292.625 110.125 C 294.390 110.152,297.277 110.152,299.042 110.125 C 300.806 110.098,299.362 110.076,295.833 110.076 C 292.304 110.076,290.860 110.098,292.625 110.125 M353.281 110.125 C 354.856 110.152,357.481 110.152,359.114 110.125 C 360.747 110.097,359.458 110.075,356.250 110.075 C 353.042 110.075,351.706 110.097,353.281 110.125 M153.792 110.291 C 155.465 110.319,158.202 110.319,159.875 110.291 C 161.548 110.264,160.179 110.242,156.833 110.242 C 153.487 110.242,152.119 110.264,153.792 110.291 M35.792 110.791 C 37.556 110.818,40.444 110.818,42.208 110.791 C 43.973 110.764,42.529 110.742,39.000 110.742 C 35.471 110.742,34.027 110.764,35.792 110.791 M222.542 110.958 C 223.802 110.986,225.865 110.986,227.125 110.958 C 228.385 110.930,227.354 110.906,224.833 110.906 C 222.313 110.906,221.281 110.930,222.542 110.958 M393.228 120.417 C 393.228 121.333,393.256 121.687,393.290 121.203 C 393.324 120.718,393.323 119.968,393.289 119.536 C 393.255 119.104,393.227 119.500,393.228 120.417 M393.209 123.417 C 393.211 123.783,393.245 123.914,393.285 123.706 C 393.324 123.499,393.323 123.199,393.281 123.040 C 393.239 122.880,393.207 123.050,393.209 123.417 M285.375 135.625 C 303.135 135.648,332.198 135.648,349.958 135.625 C 367.719 135.602,353.188 135.582,317.667 135.582 C 282.146 135.582,267.615 135.602,285.375 135.625 " stroke="none" fill="#74accc" fill-rule="evenodd"></path></g></svg>