<?xml version="1.0" encoding="utf-8"?>
<!-- Generator: Adobe Illustrator 21.1.0, SVG Export Plug-In . SVG Version: 6.00 Build 0)  -->
<svg version="1.1" xmlns="http://www.w3.org/2000/svg" xmlns:xlink="http://www.w3.org/1999/xlink" x="0px" y="0px"
	 viewBox="0 0 516 97.7" style="enable-background:new 0 0 516 97.7;" xml:space="preserve">
<style type="text/css">
	.st0{display:none;}
	.st1{display:inline;fill:#BE1E2D;}
	.st2{fill:#FFF456;}
	.st3{fill:none;stroke:#000000;stroke-width:1.9378;}
</style>
<g id="BG" class="st0">
	<rect x="-71.6" y="-93.6" class="st1" width="606.6" height="599.3"/>
</g>
<g id="Layer_1">
	<g>
		<path class="st2" d="M163.4,94.3c-14.9,0-28.4-4.8-38-13.6c-9.4-8.6-14.6-20.4-14.6-33.1c0-27.1,22.1-46.8,52.6-46.8
			c30.7,0,53,19.7,53,46.8c0,12.8-5.2,24.6-14.6,33.1C192.1,89.4,178.5,94.3,163.4,94.3z M163.6,23.8c-14.3,0-24.3,9.7-24.3,23.5
			c0,13.8,10,23.5,24.3,23.5c14.3,0,24.3-9.7,24.3-23.5C187.9,33.4,177.9,23.8,163.6,23.8z"/>
	</g>
	<path class="st2" d="M87.7,97.3l-0.1-0.4c-0.9-4-1.8-4.7-5.4-4.7H0.4v-3.8l0.4-0.1c4.1-1,4.9-1.8,4.9-5.4V12.1
		c0-3.7-0.9-4.7-4.9-5.6L0.4,6.3V2.5h38.4v3.8l-0.4,0.1c-4,1-4.9,2-4.9,5.6v57h48.7c3.7,0,4.5-0.7,5.4-4.7l0.1-0.4h3.8v33.3H87.7z"
		/>
	<path class="st2" d="M291.2,94.2c-18.2,0-33.3-4.6-43.8-13.4c-9.9-8.4-15.2-20-15.2-33.6c0-28,22.6-46.8,56.3-46.8
		c15.3,0,26,3.6,33.1,6c3.2,1.1,5.6,1.9,7,1.9c1.4,0,2-0.6,3.7-2.5l0.2-0.3l3.4,1.1L321,34.3l-3.5-1.1l0.3-0.6
		c0.2-0.4,0.3-0.9,0.3-1.2c0-4.3-12.1-9.5-26.1-9.5c-19.8,0-32.6,10.2-32.6,26c0,15.5,12,25.1,31.4,25.1c8.3,0,15-1.3,21.4-4.3v-8.2
		h-15.9c-3.7,0-4.5,0.7-5.4,4.7l-0.1,0.4H287v-28h3.8l0.1,0.4c1,4,1.8,4.7,5.4,4.7h48.7V47l-0.4,0.1c-4.1,1-4.7,1.7-4.7,5.4v17.3
		c0,3.6,0.6,4.6,4.7,5.6l0.4,0.1v3.7l-1,0.4C326.9,87.5,312,94.2,291.2,94.2z"/>
	<path class="st2" d="M360.4,92.1v-4.6l0.4-0.1c4.1-1,4.7-1.7,4.7-5.5V12.3c0-3.6-0.6-4.7-4.7-5.7l-0.4-0.1V2.6h38.2v3.8l-0.4,0.1
		c-4,1-4.9,2-4.9,5.7v69.6c0,3.6,0.8,4.5,4.9,5.5l0.4,0.1v4.6H360.4z"/>
	<path class="st2" d="M467.5,94.2c-18.2,0-33.3-4.6-43.8-13.4c-9.9-8.4-15.2-20-15.2-33.6c0-13.1,5.3-24.9,15.1-33.2
		c10.3-8.9,24.7-13.5,41.6-13.5c15.3,0,26.5,3.8,33.2,6c3,1,5.2,1.8,6.5,1.8c1.4,0,2.4-0.8,3.9-2.5l0.2-0.3l3.2,1.1l-15.3,29.7
		l-3.5-1.2l0.3-0.6c0.2-0.4,0.4-0.9,0.4-1.2c0-4.3-11.7-9.5-26.1-9.5c-19,0-31.2,9.1-31.2,23.1c0,14.1,11.5,22.5,30.8,22.5
		c9.2,0,16.1-1.8,24.8-6.3c2-1.1,2.4-1.8,2.4-2.6c0-0.7-0.2-1.5-0.6-2.5l-0.2-0.5l3.4-1.4l17.9,28.6l-2.9,1.7l-0.3-0.3
		c-1.5-1.3-2.5-2.1-3.3-2.1c-0.4,0-1.7,0.6-3.2,1.3C499.9,88.3,487.8,94.2,467.5,94.2z"/>
	<g>
		<g>
			<g>
				<g>
					<g>
						<path d="M446.9,91.6c-8-2.1-15.9-5.6-21-9.7l-33.2-4.7v6.3c0.3,2.4,2.2,3.3,5.5,4.1l0,4L446.9,91.6z"/>
						<path d="M361,91.6v-4c3.2-0.6,5.3-1.9,5.3-4.4l-0.2-9.9c0,0-25.8-3.8-26.7-3.8c0.3,1.2-1.2,5.3,5.2,6.3l0,3.1
							c-10,4.5-23.1,10.2-33.5,12.7H361z"/>
						<path d="M290.8,73.5c7.4,0,15-1.2,22-4.5v-3.4l-21.6-3.1c-0.1,0.1-0.5,1-0.9,2.6l-2.8,0v-3.1l-26.7-3.8
							C264.9,67.4,276.1,73.5,290.8,73.5z"/>
						<path d="M113.9,61.9c-1.7,0.5-22.9,5.9-22.9,5.9v23.8h55.6C128.1,85.7,118.4,74.4,113.9,61.9z"/>
						<path d="M215.9,51.5c-1.6,18.4-15.5,34.1-35.2,40.1l90.4,0C250.6,86,236.6,74,233.3,54.1L215.9,51.5z"/>
						<path d="M188.4,47.6l-16.8-2.4l-31.9,8.9c1.7,7.2,9.3,17.5,23.9,17.5C178.2,71.6,188.2,61.2,188.4,47.6z"/>
					</g>
				</g>
			</g>
		</g>
	</g>
	<g>
		<path class="st3" d="M163.4,1.3c-31.4,0-52.1,20.8-52.1,46.3c0,25.7,21.1,46.2,52.1,46.2c31.4,0,52.5-20.6,52.5-46.2
			C215.9,21.8,195.2,1.3,163.4,1.3z M163.6,71.3c-15.2,0-24.8-10.5-24.8-24.1c0-13.8,9.8-24,24.8-24c15.2,0,24.8,10.5,24.8,24
			C188.4,60.9,178.8,71.3,163.6,71.3z"/>
	</g>
	<path class="st3" d="M38.3,5.9c-4.3,1-5.3,2.3-5.3,6.2v57.5h49.2c3.9,0,4.9-0.8,5.9-5.1h2.9v32.3h-2.9c-1-4.3-2.1-5.1-5.9-5.1H1
		v-2.9c4.3-1,5.3-2,5.3-5.9V12.1c0-3.9-1-5.1-5.3-6.2V3h37.3V5.9L38.3,5.9z"/>
	<path class="st3" d="M291.2,93.7c-37.9,0-58.4-19.9-58.4-46.4c0-26.1,20.7-46.3,55.7-46.3c22.4,0,35.3,7.8,40.2,7.8
		c1.6,0,2.4-0.8,4.1-2.7l2.5,0.8l-14.5,26.7l-2.5-0.8c0.2-0.4,0.4-1,0.4-1.4c0-4.9-12.7-10.1-26.7-10.1c-20.5,0-33.2,10.9-33.2,26.5
		c0,15.8,12.1,25.7,32,25.7c8,0,15-1.2,21.9-4.5v-9h-16.4c-3.9,0-4.9,0.8-6,5.1h-2.9V38.2h2.9c1,4.3,2.1,5.1,6,5.1h48.2v3.3
		c-4.3,1-5.1,2.1-5.1,6v17.3c0,3.9,0.8,5.1,5.1,6.2v2.9C327.3,86.7,312.1,93.7,291.2,93.7L291.2,93.7z"/>
	<path class="st3" d="M398.1,87.9v3.7H361v-3.7c4.3-1,5.1-2.1,5.1-6V12.3c0-3.9-0.8-5.2-5.1-6.2V3.2h37.1v2.9
		c-4.3,1-5.3,2.3-5.3,6.2v69.6C392.8,85.8,393.8,86.9,398.1,87.9L398.1,87.9z"/>
	<path class="st3" d="M494.4,34.9c0.2-0.4,0.4-1,0.4-1.4c0-4.9-12.3-10.1-26.7-10.1c-19.3,0-31.7,9.5-31.7,23.6
		c0,14,11.5,23,31.4,23c9.8,0,16.8-2.1,25-6.4c1.9-1,2.7-1.9,2.7-3.1c0-0.8-0.2-1.7-0.6-2.7l2.5-1l17.4,27.7l-2.1,1.2
		c-1.6-1.4-2.7-2.3-3.7-2.3c-2.4,0-15.1,10.1-41.4,10.1c-37.9,0-58.4-19.9-58.4-46.4C409.1,21.3,430,1,465.3,1
		c22.1,0,35.3,7.8,39.8,7.8c1.6,0,2.7-0.8,4.3-2.7l2.3,0.8l-14.8,28.8L494.4,34.9L494.4,34.9z"/>
</g>
</svg>
