<svg id="Lager_1" data-name="Lager 1" xmlns="http://www.w3.org/2000/svg" width="1000mm" height="320mm" viewBox="0 0 2834.6457 907.0866"><defs><style>.cls-1{fill:#01c355;}</style></defs><title>Namnlöst-1</title><path class="cls-1" d="M638.0239,623.6875c-7.4994,237.69-178.8992,280.2256-302.7407,280.2256C166.3776,903.9131,0,816.3469,0,453.5433S166.3776,3.1735,335.2832,3.1735c123.8415,0,293.9858,42.5361,302.7407,280.2256,2.5111,63.8125-28.7759,81.3224-78.8113,81.3224H479.1457c-50.0354,0-66.3067-13.76-82.578-75.0616-13.76-51.291-36.2752-67.5623-68.8008-66.3067-43.7916,1.2555-92.5715,58.79-92.5715,230.19s48.78,228.9346,92.5715,230.19c32.5256,1.2555,53.8021-15.0158,68.8008-66.3068,17.5268-61.3014,32.5426-75.0616,82.578-75.0616h80.0669C609.248,542.3651,640.535,559.875,638.0239,623.6875Z"/><path class="cls-1" d="M744.2877,90.74c0-48.7968,26.2648-75.0616,75.0616-75.0616h223.9294c171.4,0,325.2727,86.3277,325.2727,437.8652s-153.8729,437.8652-325.2727,437.8652H819.3493c-48.7968,0-75.0616-26.2648-75.0616-75.0616ZM979.4831,671.2288h51.291c71.3119,0,102.5819-56.2962,102.5819-217.6855,0-158.8782-31.27-215.1744-102.5819-216.43l-51.291-1.2555Z"/><path class="cls-1" d="M2106.6123,453.5433c0,362.8036-165.139,450.37-325.2728,450.37-158.8951-1.2386-325.2727-87.5662-325.2727-450.37S1622.4444,3.1735,1781.34,3.1735C1940.2177,3.1735,2106.6123,88.2456,2106.6123,453.5433Zm-235.1954,0c0-173.8939-43.7916-231.4457-90.0774-230.19-46.3027,1.2555-90.0773,58.79-90.0773,230.19,0,173.8939,43.7746,230.19,90.0773,230.19C1827.6253,683.7335,1871.4169,627.4372,1871.4169,453.5433Z"/><path class="cls-1" d="M2591.9339,835.1123l-145.118-322.7786h-2.4941V816.3469c0,48.7968-26.2818,75.0616-75.0617,75.0616h-81.3224c-48.7968,0-75.0616-26.2648-75.0616-75.0616V90.74c0-48.7968,26.2648-75.0616,75.0616-75.0616H2369.26c42.5191,0,70.0564,18.7654,86.3107,57.5518l146.3736,354.0486h2.5111V90.74c0-48.7968,26.2648-75.0616,75.0617-75.0616h80.0668c48.78,0,75.0617,26.2648,75.0617,75.0616V816.3469c0,48.7968-26.2818,75.0616-75.0617,75.0616h-80.0668C2636.9811,891.4085,2609.4608,873.8986,2591.9339,835.1123Z"/></svg>