<svg width="790" height="265" xmlns="http://www.w3.org/2000/svg">

 <g>
  <title>Layer 1</title>
  <g stroke="null" id="svg_21">
   <g stroke="null" id="svg_4" fill="#000000">
    <rect stroke="null" id="svg_5" height="34.55322" width="35.79834" y="30.39236" x="310.00238"/>
    <rect stroke="null" id="svg_6" height="152.32362" width="35.79834" y="82.85537" x="310.00238"/>
    <path stroke="null" id="svg_7" d="m453.94544,82.76491l-90.71412,0l0,152.41408l35.79834,0l0,-117.86086l54.91578,0l0,0c7.9656,0 14.43179,6.24129 14.43179,13.92983l0,0l0,103.93102l35.79834,0l0,-103.84057c0.09371,-26.86468 -22.4911,-48.57351 -50.23013,-48.57351zm219.47569,96.33293l0,-47.84988l0,0c0,-26.77422 -22.4911,-48.48305 -50.23013,-48.48305l-52.1981,0.09045c-27.73903,0 -50.23013,21.70883 -50.23013,48.48305l0,0l0,55.35752c0,26.77422 22.4911,48.48305 50.23013,48.48305l102.52195,0l0,-34.55322l-102.61566,0c-7.9656,0 -14.43179,-6.24129 -14.43179,-13.92983l0,-7.59809l116.95374,0zm-116.95374,-47.66897c0,-7.68854 6.46619,-13.92983 14.43179,-13.92983l52.1981,-0.09045c7.9656,0 14.43179,6.24129 14.43179,13.92983l0,16.55298l-81.1554,0l0,-16.46253l0.09371,0zm183.02136,69.28735c-7.9656,0 -14.43179,-6.24129 -14.43179,-13.92983l0,0l0,-69.3778l33.54923,0l0,-34.64367l-33.54923,0l0,-52.37255l-35.79834,0l0,156.30358c0,26.77422 22.4911,48.48305 50.23013,48.48305l43.29537,0l0,-34.55322l-43.29537,0l0,0.09045zm39.92171,-138.7556c-5.71649,-1.62816 -12.27639,0.63317 -15.65006,5.42721c-3.6548,4.88449 -3.46738,12.03031 0.37485,16.73389c3.56109,4.52267 10.121,6.51265 15.74377,4.70358c5.43535,-1.62816 9.55872,-6.51265 10.121,-11.93986l0,-2.80406c-0.56228,-5.60811 -4.96679,-10.67351 -10.58956,-12.12076zm2.9051,23.69881c-4.87307,3.16587 -11.90154,2.35179 -15.83749,-1.80907c-4.02966,-3.8895 -4.68565,-10.58305 -1.40569,-15.10573c1.68683,-2.5327 4.49822,-4.34177 7.49703,-5.06539c5.90391,-1.53771 12.46382,1.80907 14.61922,7.32673c2.34282,5.15585 0.09371,11.6685 -4.87307,14.65346zm-1.49941,-10.67351c1.59312,-2.17088 0.7497,-5.87947 -2.06168,-6.6031c-2.9051,-0.54272 -5.90391,-0.18091 -8.90273,-0.27136c0,4.88449 0,9.76897 0,14.65346c0.65599,0 1.40569,0 2.06168,0c0,-2.08043 0,-4.07041 0,-6.15084c1.21827,0 2.53025,0 3.74852,0c1.40569,2.08043 2.71768,4.16086 4.12337,6.15084c0.84342,0 1.68683,0 2.53025,0c-1.40569,-2.08043 -2.81139,-4.16086 -4.21708,-6.24129c0.93713,-0.27136 2.06168,-0.63317 2.71768,-1.53771zm-8.90273,-0.09045c0,-1.71862 0,-3.34678 0,-5.06539c1.87426,0.09045 3.74852,-0.18091 5.62278,0.09045c1.78055,0.27136 2.53025,2.62315 1.49941,3.97995c-0.56228,0.72363 -1.59312,0.90453 -2.53025,0.90453c-1.59312,0.09045 -3.09253,0.09045 -4.59193,0.09045z"/>
   </g>
   <g stroke="null" id="svg_8" fill="#d10000">
    <circle stroke="null" id="svg_9" r="6.96491" cy="71.54869" cx="124.91934"/>
    <circle stroke="null" id="svg_10" r="6.96491" cy="145.35871" cx="48.44959"/>
    <circle stroke="null" id="svg_11" r="6.96491" cy="120.48401" cx="227.06643"/>
    <path stroke="null" id="svg_12" d="m52.76038,84.66444l87.62159,-84.66444c-1.03084,0 -1.96797,0 -2.99881,0c-49.10558,0 -92.11981,24.8747 -116.48517,62.23198l23.24081,22.43246c2.43654,2.26134 6.18505,2.26134 8.62159,0zm-9.46501,-11.75895c-2.81139,-2.7136 -2.81139,-7.23628 0,-9.94988s7.49703,-2.7136 10.30842,0c2.81139,2.7136 2.81139,7.23628 0,9.94988c-2.9051,2.7136 -7.49703,2.7136 -10.30842,0zm13.96323,-13.47757c-2.81139,-2.7136 -2.81139,-7.23628 0,-9.94988c2.81139,-2.7136 7.49703,-2.7136 10.30842,0s2.81139,7.23628 0,9.94988c-2.9051,2.7136 -7.49703,2.7136 -10.30842,0zm13.58838,-13.2062c-2.81139,-2.7136 -2.81139,-7.23628 0,-9.94988c2.81139,-2.7136 7.49703,-2.7136 10.30842,0c2.81139,2.7136 2.81139,7.23628 0,9.94988s-7.40332,2.7136 -10.30842,0zm151.72124,135.22792l-86.87189,83.85036c0.56228,0 1.12456,0 1.78055,0c49.01186,0 92.0261,-24.78425 116.29775,-62.05107l-22.67853,-21.88974c-2.34282,-2.26134 -6.18505,-2.26134 -8.52788,0.09045zm9.18387,11.57804c2.81139,2.7136 2.81139,7.23628 0,9.94988s-7.49703,2.7136 -10.30842,0c-2.81139,-2.7136 -2.81139,-7.23628 0,-9.94988c2.9051,-2.7136 7.49703,-2.7136 10.30842,0zm-13.96323,13.47757c2.81139,2.7136 2.81139,7.23628 0,9.94988c-2.81139,2.7136 -7.49703,2.7136 -10.30842,0c-2.81139,-2.7136 -2.81139,-7.23628 0,-9.94988s7.49703,-2.7136 10.30842,0zm-13.58838,13.2062c2.81139,2.7136 2.81139,7.23628 0,9.94988c-2.81139,2.7136 -7.49703,2.7136 -10.30842,0s-2.81139,-7.23628 0,-9.94988s7.40332,-2.80406 10.30842,0zm-25.30249,-62.41289c0,-1.53771 -0.65599,-2.98496 -1.78055,-4.16086l-34.86121,-33.64869c-3.18624,-3.07542 -4.87307,-7.14582 -4.87307,-11.48759c0,-4.34177 1.78055,-8.41217 4.96679,-11.48759l74.78292,-72.09141c-18.0866,-12.39212 -39.35943,-20.71384 -62.50653,-23.5179l-94.27521,91.08663c-6.55991,6.33174 -17.14947,6.33174 -23.70937,0l-21.27284,-20.44248c-9.83986,18.2716 -15.36892,39.07589 -15.36892,61.14654c0,15.64845 2.81139,30.57327 7.9656,44.5031l24.55279,-23.69881c-3.56109,-6.51265 -2.43654,-14.83437 3.18624,-20.26157c7.02847,-6.78401 18.36773,-6.78401 25.3962,0c7.02847,6.78401 7.02847,17.72888 0,24.51289c-5.71649,5.51766 -14.24437,6.51265 -20.9917,3.07542l-27.83274,26.86468c6.18505,13.11575 14.43179,24.96515 24.45908,35.3673l74.97035,-72.27231c1.12456,-1.08544 1.78055,-2.5327 1.78055,-4.16086c0,-1.53771 -0.65599,-2.98496 -1.78055,-4.16086l-22.11625,-21.34702c-3.18624,-3.07542 -4.87307,-7.14582 -4.87307,-11.48759c0,-4.34177 1.78055,-8.41217 4.96679,-11.48759l19.30486,-18.54296c-3.56109,-6.51265 -2.43654,-14.83437 3.18624,-20.26157c7.02847,-6.78401 18.36773,-6.78401 25.3962,0c7.02847,6.78401 7.02847,17.72888 0,24.51289c-5.71649,5.51766 -14.24437,6.51265 -20.9917,3.07542l-19.30486,18.54296c-1.12456,1.08544 -1.78055,2.5327 -1.78055,4.16086c0,1.53771 0.65599,2.98496 1.78055,4.16086l22.11625,21.34702c3.18624,3.07542 4.87307,7.14582 4.87307,11.48759c0,4.34177 -1.78055,8.41217 -4.96679,11.48759l-74.97035,72.27231c10.8707,9.58807 23.33452,17.63842 36.9229,23.5179l95.86833,-92.53389c1.12456,-1.08544 1.78055,-2.5327 1.78055,-4.07041zm59.78885,16.82434l20.61685,19.89976c9.93357,-18.36205 15.55635,-39.16635 15.55635,-61.32744c0,-15.28663 -2.71768,-29.94009 -7.59075,-43.59857l-24.27165,23.42745c3.56109,6.51265 2.43654,14.83437 -3.18624,20.26157c-7.02847,6.78401 -18.36773,6.78401 -25.3962,0c-7.02847,-6.78401 -7.02847,-17.72888 0,-24.51289c5.71649,-5.51766 14.24437,-6.51265 20.9917,-3.07542l27.5516,-26.59332c-8.62159,-18.54296 -21.46026,-34.73413 -37.29775,-47.57852l-75.72005,72.90549c-1.12456,1.08544 -1.78055,2.5327 -1.78055,4.16086c0,1.53771 0.65599,2.98496 1.78055,4.16086l34.86121,33.64869c3.18624,3.07542 4.87307,7.14582 4.87307,11.48759c0,4.34177 -1.78055,8.41217 -4.96679,11.48759l-92.58838,89.18711c9.37129,3.16587 19.11744,5.33675 29.23843,6.51265l93.52551,-90.27255c6.65362,-6.51265 17.24318,-6.51265 23.80308,-0.18091z"/>
   </g>
   <g stroke="null" id="svg_13" fill="#ffffff">
    <circle stroke="null" id="svg_14" r="7.05537" cy="198.00262" cx="226.59787"/>
    <circle stroke="null" id="svg_15" r="7.05537" cy="211.48018" cx="212.63464"/>
    <circle stroke="null" id="svg_16" r="7.05537" cy="224.68639" cx="199.04627"/>
    <circle stroke="null" id="svg_17" r="7.05537" cy="67.93055" cx="48.44959"/>
    <circle stroke="null" id="svg_18" r="7.05537" cy="54.45298" cx="62.41281"/>
    <circle stroke="null" id="svg_19" r="7.05537" cy="41.24678" cx="76.00119"/>
    <path stroke="null" id="svg_20" d="m189.67498,157.29856c0,-4.34177 -1.78055,-8.41217 -4.87307,-11.48759l-34.95492,-33.64869c-1.12456,-1.08544 -1.78055,-2.5327 -1.78055,-4.16086c0,-1.53771 0.65599,-2.98496 1.78055,-4.16086l75.72005,-72.99594c-2.71768,-2.26134 -5.62278,-4.34177 -8.52788,-6.4222l-74.78292,72.09141c-3.18624,3.07542 -4.96679,7.14582 -4.96679,11.48759c0,4.34177 1.78055,8.41217 4.87307,11.48759l34.86121,33.64869c1.12456,1.08544 1.78055,2.5327 1.78055,4.16086c0,1.53771 -0.65599,2.98496 -1.78055,4.16086l-95.6809,92.26253c3.56109,1.53771 7.2159,2.89451 10.8707,4.16086l92.58838,-89.18711c3.09253,-2.98496 4.87307,-7.05537 4.87307,-11.39714zm53.32266,-44.86492l24.27165,-23.42745c-1.31198,-3.52768 -2.71768,-7.05537 -4.31079,-10.4926l-27.5516,26.59332c-6.74733,-3.43723 -15.36892,-2.35179 -20.9917,3.07542c-7.02847,6.78401 -7.02847,17.72888 0,24.51289c7.02847,6.78401 18.36773,6.78401 25.3962,0c5.62278,-5.42721 6.74733,-13.65847 3.18624,-20.26157zm-20.9917,13.0253c-2.81139,-2.7136 -2.81139,-7.14582 0,-9.85943c2.81139,-2.7136 7.40332,-2.7136 10.21471,0c2.81139,2.7136 2.81139,7.14582 0,9.85943c-2.81139,2.7136 -7.40332,2.7136 -10.21471,0zm-97.74259,21.07566c0,-4.34177 -1.78055,-8.41217 -4.87307,-11.48759l-22.11625,-21.34702c-1.12456,-1.08544 -1.78055,-2.5327 -1.78055,-4.16086c0,-1.53771 0.65599,-2.98496 1.78055,-4.16086l19.30486,-18.54296c6.74733,3.43723 15.36892,2.35179 20.9917,-3.07542c7.02847,-6.78401 7.02847,-17.72888 0,-24.51289c-7.02847,-6.78401 -18.36773,-6.78401 -25.3962,0c-5.71649,5.51766 -6.74733,13.74893 -3.18624,20.26157l-19.30486,18.54296c-3.18624,3.07542 -4.96679,7.14582 -4.96679,11.48759c0,4.34177 1.78055,8.41217 4.87307,11.48759l22.11625,21.34702c1.12456,1.08544 1.78055,2.5327 1.78055,4.16086c0,1.53771 -0.65599,2.98496 -1.78055,4.16086l-74.97035,72.27231c2.43654,2.5327 4.96679,4.97494 7.59075,7.32673l74.97035,-72.27231c3.27995,-3.07542 4.96679,-7.14582 4.96679,-11.48759zm-4.49822,-79.8704c2.81139,-2.7136 7.40332,-2.7136 10.21471,0c2.81139,2.7136 2.81139,7.14582 0,9.85943c-2.81139,2.7136 -7.40332,2.7136 -10.21471,0c-2.81139,-2.7136 -2.81139,-7.14582 0,-9.85943zm-58.6643,66.48329c-7.02847,-6.78401 -18.36773,-6.78401 -25.3962,0c-5.71649,5.51766 -6.74733,13.74893 -3.18624,20.26157l-24.55279,23.69881c1.31198,3.52768 2.71768,7.05537 4.40451,10.40215l27.83274,-26.86468c6.74733,3.43723 15.27521,2.35179 20.9917,-3.07542c6.93476,-6.69356 6.93476,-17.72888 -0.09371,-24.42243zm-17.80546,17.18616c-2.81139,-2.7136 -2.81139,-7.14582 0,-9.85943c2.81139,-2.7136 7.40332,-2.7136 10.21471,0c2.81139,2.7136 2.81139,7.14582 0,9.85943s-7.40332,2.7136 -10.21471,0zm195.39146,23.78926c-6.55991,-6.33174 -17.14947,-6.33174 -23.70937,0l-93.52551,90.27255c4.68565,0.54272 9.46501,0.81408 14.24437,0.90453l86.87189,-83.85036c2.34282,-2.26134 6.18505,-2.26134 8.52788,0l22.67853,21.88974c1.96797,-2.98496 3.84223,-6.15084 5.52906,-9.31671l-20.61685,-19.89976zm-178.33571,-82.13174l94.1815,-90.99618c-4.68565,-0.54272 -9.37129,-0.90453 -14.15065,-0.99499l-87.62159,84.66444c-2.34282,2.26134 -6.18505,2.26134 -8.52788,0l-23.33452,-22.43246c-1.96797,2.98496 -3.84223,6.15084 -5.52906,9.31671l21.17912,20.44248c6.55991,6.33174 17.24318,6.33174 23.80308,0z"/>
   </g>
  </g>
 </g>
</svg>